<?xml version="1.0" standalone="no"?><!DOCTYPE svg PUBLIC "-//W3C//DTD SVG 1.1//EN" "http://www.w3.org/Graphics/SVG/1.1/DTD/svg11.dtd"><svg t="1520692227736" class="icon" style="" viewBox="0 0 1024 1024" version="1.1" xmlns="http://www.w3.org/2000/svg" p-id="2136" xmlns:xlink="http://www.w3.org/1999/xlink" width="64" height="64"><defs><style type="text/css"></style></defs><path d="M999.744 422.336c-18.048 38.464-40.96 72.064-58.624 110.784-18.048-5.824-24.448-23.36-45.696-26.048 0 147.776 0 295.488 0 443.264-259.648 0-519.232 0-778.88 0 0-146.624 0-293.376 0-440C100.544 504.128 89.024 530.496 70.912 533.12 56 493.76 31.744 463.744 15.552 425.536 66.304 379.712 129.216 345.856 181.76 301.76c0-53.248 0-106.496 0-159.68 51.008 0 102.144 0 153.216 0 0 16.256 0 32.576 0 48.896 54.72-28.928 113.728-81.856 172.672-117.312C672 189.568 834.432 307.392 999.744 422.336zM253.44 419.072C227.328 437.888 181.248 461.632 175.232 480.96c-7.616 24.512 0 69.504 0 101.12 0 106.24 0 207.488 0 309.632 220.48 0 441.088 0 661.568 0 0-139.136 0-278.272 0-417.152-109.632-79.424-220.16-157.888-332.416-234.688C426.56 295.744 337.6 358.336 253.44 419.072z" p-id="2137" fill="#0f8ee9"></path><path d="M484.8 396.288c130.24-10.944 254.784 91.712 234.624 250.88-10.368 81.728-70.272 144.128-133.568 169.472C355.2 909.312 188.608 609.92 347.968 454.912 380.928 422.784 430.4 400.832 484.8 396.288zM475.008 480.96C433.024 501.248 411.328 529.792 416.384 572.288c8.32 70.016 114.496 54.976 117.376 94.528 2.944 41.472-67.584 41.728-71.68 0-15.232 0-30.528 0-45.696 0 1.6 45.12 28.032 65.28 58.624 81.472 0.448 9.344-1.728 21.248 3.328 25.984 15.232 0 30.4 0 45.632 0 0-9.728 0-19.52 0-29.248 62.336-16.512 73.984-94.72 39.04-130.368C537.984 588.928 474.304 595.584 468.48 565.824 462.592 535.104 489.408 526.016 514.176 529.856c11.328 6.08 12.48 22.272 22.72 29.44 15.232 0 30.464 0 45.696 0C580.992 514.112 551.488 496.896 523.968 477.696c0-8.64 0-17.344 0-26.048-16.32 0-32.64 0-48.96 0C475.008 461.44 475.008 471.232 475.008 480.96z" p-id="2138" fill="#0f8ee9"></path></svg>