<?xml version="1.0" standalone="no"?><!DOCTYPE svg PUBLIC "-//W3C//DTD SVG 1.1//EN" "http://www.w3.org/Graphics/SVG/1.1/DTD/svg11.dtd"><svg t="1520693184107" class="icon" style="" viewBox="0 0 1024 1024" version="1.1" xmlns="http://www.w3.org/2000/svg" p-id="990" xmlns:xlink="http://www.w3.org/1999/xlink" width="64" height="64"><defs><style type="text/css"></style></defs><path d="M101.86265874 236.09419515l-11.3008013-50.9916899c73.59329251-6.8903957 170.06435577-18.19119701 289.41042811-33.9024039 10.19889033-2.20520279 17.64162236-3.30711378 22.87777076-3.30711378l11.30080128 54.29880368c-12.67888043 2.20520279-31.6972011 4.68657376-57.05496196 6.89039572-30.59529011 4.68657376-52.0936009 7.99506836-64.77248133 10.19889031v128.71921985h133.40441276v47.40840797h-133.40441276V900.63764963h-72.49138153V395.4087051h-148.28849598v-47.40840797h148.56466415v-122.10361146c-12.67888043 0-31.6972011 1.10191099-57.05634282 3.30711376-28.11391915 2.47999012-48.50893811 4.68519291-61.18919938 6.89039572z m30.59529011 593.4301521l-57.0563428-6.8903957c20.39778064-124.30881426 31.69858194-247.51571753 34.17857205-369.61932899h49.61361077c0 131.20059079-9.0955985 256.61131603-26.73584002 376.51110555z m243.65626744 0c-17.91502884-142.50001125-26.73584002-267.9107365-26.73584002-376.23355653h49.61361077c2.47999012 142.50001125 14.05695958 265.70691453 34.17857205 369.619329l-57.0563428 6.61422753z m156.28356435-254.40611323c-53.19827355-4.40902475-81.3121927-30.59390928-83.79218283-78.00231725V337.80140681c4.96136107-45.20320517 31.6972011-70.00862973 79.93273274-74.69520348h19.01832065c-5.23752924-13.50462325-12.67888043-33.90240389-22.87777077-60.91441208-10.19889033-24.80680539-17.91640969-44.09991337-22.87777076-57.60591745h76.07466348c4.96136107 15.70982605 14.05695958 39.69088863 26.73584001 71.1133024 7.7189002 20.39501895 14.05695958 36.10622583 19.01832065 47.40702713h99.22722155c4.96136107-11.3008013 11.3008013-27.01200818 19.01832065-47.40840797 12.67888043-31.6972011 21.49969162-55.4020955 26.73584002-71.1133024h76.07328262c-15.15887056 42.99938323-30.59390928 82.41410369-45.75416068 118.79787854h26.73584004c58.43442195 0 87.65025209 24.80680539 87.65025207 74.69520348v159.31450996c-2.47999012 49.61361077-29.21583013 75.79711446-79.93273271 78.00369808H795.34853689v230.42505067c2.48137097 22.60160259 19.01832066 33.90240389 49.61361077 33.90240389h106.66995358l-11.30218213 50.99168992H802.79126892c-50.71690259-2.20520279-77.45136176-24.80680539-79.93273272-67.80480778V575.39440219h-91.50832134c0 90.40641037-11.30218213 156.00739618-34.17857205 196.52402762-25.35914172 45.20320517-74.97137165 90.40641037-148.56466415 135.6109964l-49.61361077-47.40840799c63.39440219-40.79418044 105.28911275-80.2089009 125.68689339-118.7964977 22.87777075-33.90240389 34.17857205-89.30449939 34.17857205-166.20490566H532.39501895z m-11.30218214-227.11793689v138.91672932c0 24.80680539 14.05695958 38.58897764 41.89471057 40.79418043H802.79126892c25.35776087-2.20520279 38.03664131-15.71120688 38.03664132-40.79418043V348.00029713c-2.48137097-22.60160259-15.16025139-35.00431486-38.03664132-37.20951766H559.13223982c-22.87638992 2.20382195-35.5566512 14.60791506-38.03664132 37.20951766z" p-id="991" fill="#0f8ee9"></path></svg>